<?xml version="1.0" encoding="utf-8"?>
<!-- Generator: Adobe Illustrator 26.2.1, SVG Export Plug-In . SVG Version: 6.00 Build 0)  -->
<svg version="1.1" xmlns="http://www.w3.org/2000/svg" xmlns:xlink="http://www.w3.org/1999/xlink" x="0px" y="0px"
	 viewBox="0 0 500 500" style="enable-background:new 0 0 500 500;" xml:space="preserve">
<style type="text/css">
	.st0{fill:#F9E4CF;}
	.st1{fill:#F9E0C0;}
	.st2{fill:#F4CD98;}
	.st3{fill:#FFFFFF;}
	.st4{fill:#FFD686;}
	.st5{fill:#EFC77F;}
	.st6{fill:#FFE4B3;}
	.st7{fill:#FFE0D4;}
	.st8{fill:#FFD686;stroke:#EFC77F;stroke-miterlimit:10;}
	.st9{fill:#EFC77F;stroke:#EFC77F;stroke-miterlimit:10;}
	.st10{fill:none;stroke:#EFC77F;stroke-width:2;stroke-linecap:round;stroke-linejoin:round;stroke-miterlimit:10;}
	.st11{fill:#FFA08B;}
	.st12{fill:#006A66;}
	.st13{fill:#FFD179;}
	.st14{fill:#B56F68;}
	.st15{fill:#00445B;}
	.st16{fill:#724F2B;}
	.st17{fill:none;stroke:#004740;stroke-linecap:round;stroke-linejoin:round;stroke-miterlimit:10;}
	.st18{fill:#025650;}
	.st19{fill:none;stroke:#B56F68;stroke-linecap:round;stroke-linejoin:round;stroke-miterlimit:10;}
	.st20{fill:none;stroke:#004944;stroke-miterlimit:10;}
	.st21{fill:none;stroke:#005C75;stroke-linecap:round;stroke-linejoin:round;stroke-miterlimit:10;}
	.st22{fill:none;stroke:#E5BE91;stroke-linecap:round;stroke-linejoin:round;stroke-miterlimit:10;}
	.st23{fill:#FFD686;stroke:#F4CD98;stroke-miterlimit:10;}
	.st24{fill:none;stroke:#EAB35C;stroke-linecap:round;stroke-linejoin:round;stroke-miterlimit:10;}
</style>
<g id="BACKGROUND">
</g>
<g id="OBJECT">
	<g>
		<g>
			<g>
				<path class="st0" d="M414.5,402.3c-10.5,10.6-18.9,16.4-18.9,16.4H115.8c0,0-30.1-14-61.6-65.1c-10.7-17.3-15.2-38.8-14.5-60.1
					c1.3-41.6,22.1-82.8,54.4-92.4c48.9-14.6,50-66.8,113.1-82.5C270.3,103,307.6,139,307.6,139c61.6,52.8,129.8,78.3,145.3,153.9
					c0.3,1.3,0.5,2.7,0.7,4C461.6,345,434.3,382.3,414.5,402.3z"/>
				<path class="st1" d="M414.5,405.9c-9.3,5.6-20.2,11.2-32.7,16.4H115.8c0,0-30.1-14-61.6-65.1c-10.7-17.3-15.2-38.8-14.5-60.1
					c28.7,23.2,91.5,58.4,207.6,57.8c112.8-0.6,176-32.3,206.2-54.4C461.6,348.6,434.3,385.9,414.5,405.9z"/>
				<path class="st2" d="M118.8,402.9c0,0-50.7,0.8-60.5,7.7c-9.8,6.9-8.6,17.3,76.5,24.8c85,7.5,57.5,12.5,122.3,12
					c64.8-0.5,125.2-15.6,162.3-22c37.1-6.4,28.5-21.7-27.2-25.3C336.4,396.5,168.6,409.3,118.8,402.9z"/>
				<g>
					<path class="st3" d="M59.8,294.8c-11.2-1.2-18.5-12.5-14.9-23.2c4.1-12.5,14.1-27.4,37.6-35.7c30.2-10.7,64.2-0.5,74.3,27.9
						c7,19.7-3.4,37-19.8,52.2c-4.2,2.5-4.1,8.7-2.8,14.6c1.9,8.6-3.1,17.4-11.4,20.3l0,0c-9.2,3.3-19.3-1.6-22.6-10.8l-1.9-5.3
						c-3.1-8.9-5.3-16.3,1.7-25.3c9.5-12.2,20.8-16.9,15.7-31.2c-3.4-9.7-13.1-13.9-22.2-10.7c-8.3,2.9-12.7,8.9-14.9,15.3
						C75.9,290.7,68.1,295.7,59.8,294.8L59.8,294.8z M157.9,377.1c4.5,12.7-2.1,26.6-15,31.2c-12.7,4.5-26.6-2.1-31.1-14.8
						c-4.6-12.9,2.1-26.8,14.8-31.3C139.4,357.6,153.3,364.2,157.9,377.1z"/>
				</g>
				<g>
					<path class="st3" d="M345.5,272.4c-7.9-7-7.4-19.5,1.1-25.8c9.9-7.3,25.6-13.3,48-7c28.9,8.1,49.3,34.3,41.6,61.4
						c-5.3,18.9-22.6,26.4-43.3,29.1c-4.6-0.3-7.8,4.4-10,9.7c-3.2,7.6-11.7,11.6-19.7,9.3l0,0c-8.8-2.5-13.9-11.6-11.4-20.4l1.4-5
						c2.4-8.5,4.7-15.3,15-18.4c13.9-4.2,25-1.7,28.8-15.3c2.6-9.2-2.5-17.7-11.1-20.2c-7.9-2.2-14.5-0.1-19.6,3.6
						C360,278,351.3,277.6,345.5,272.4L345.5,272.4z M375.9,388.2c-3.4,12.1-16,19.2-28.3,15.7c-12.1-3.4-19.2-16-15.7-28.1
						c3.5-12.3,16.1-19.3,28.2-15.9C372.3,363.3,379.4,375.9,375.9,388.2z"/>
				</g>
				<path class="st4" d="M63.4,381.7c0,0-5-17.3-15.6-19.6c-10.5-2.3-7.2-5-9.3-10.8c-2-5.8-4.8-7.3-8.6-8c-3.8-0.8-3-10.5-8.3-11.8
					c-5.3-1.3,1.5,12.5,0,20.3c-1.5,7.8,4.3,6.5,7.3,15.5c3,9,0,14.8,3.8,21.8c3.8,7,8.8,0.3,10.5,10c1.7,9.7,14.5,15.3,24.6,14
					c10-1.3,11.2-3,11.2-3L63.4,381.7z"/>
				<path class="st5" d="M65,406.3c0,0-18.9-15.3-18.4-27.5c0.4-12.2,2-14.6-3-21.9c-5-7.3-0.3-16.8,2.8-24.5
					c3.1-7.7-7.3-13.7-0.7-21.3s22.1,8.6,24,23.6c1.8,15,5.2,19.3,14.1,25.9c8.9,6.6,10.5,17.7,9.8,24.1c-0.7,6.4,9.9,9.1,7.1,25.5
					C100.6,410.4,91,415.7,65,406.3z"/>
				<path class="st4" d="M78.5,407.9c0,0-5.4-13.7,0-22.6c5.4-8.9,4.8-9,5-16.1c0.3-7,4-10.3,7.5-11.3c3.5-1,5.8-3.7,7.5-8.5
					c1.8-4.8,7.3-5.8,10.5-1.4s-1.8,17,0,22.7c1.8,5.8,1,12.3-1.3,17.1c-2.3,4.8,2,8.5,0,15.6c-2,7-4.9,11.6-25.6,11.3L78.5,407.9z"
					/>
				<path class="st6" d="M108.4,426.8c0,0,1.7-4.9,9.9-6.9c8.3-2,15.7,5.4,16.4,8.7C134.8,428.6,116,432.5,108.4,426.8z"/>
				<path class="st5" d="M397.7,402.6c0,0-0.9-28.9,22.8-52.2c23.7-23.3,49.8-19.4,49.8-19.4s1.1,27.5-18.2,49
					c-19.2,21.5-39.7,27.7-39.7,27.7L397.7,402.6z"/>
				<path class="st4" d="M412.4,407.7c5.7,1.8,12.5,0.9,18.3-0.3c9.6-2,20-8.8,31.1-18.9c17.8-16.4,18.5-34.5,18.5-34.5
					s-28.7,0.7-47.3,17.4s-27.8,33.8-27.8,33.8L412.4,407.7z"/>
				<path class="st4" d="M190,404.2c0,0,2.6-11.8,16.6-15.5c14-3.7,16.9,5.7,29.1,1.7s11.1-9.5,26-8.3c14.9,1.2,16.9,10.3,26.6,8.3
					c9.7-2,17.4,4.7,17.7,10.2C306,400.7,240.6,405.4,190,404.2z"/>
			</g>
			<circle class="st7" cx="364.9" cy="143.9" r="10.6"/>
			<circle class="st7" cx="430.8" cy="197.3" r="5.8"/>
			<circle class="st7" cx="138.5" cy="143.9" r="10.6"/>
			<path class="st7" d="M79.1,195.5c0,3.9-3.2,7.1-7.1,7.1c-3.9,0-7.1-3.2-7.1-7.1s3.2-7.1,7.1-7.1C76,188.5,79.1,191.6,79.1,195.5z
				"/>
		</g>
		<g>
			<ellipse class="st6" cx="250.9" cy="414.9" rx="42.4" ry="7.5"/>
			<g>
				<path class="st8" d="M283.2,307c-0.1-2.9-0.5-5.8-1.1-8.5c-3.4-14.2-14.4-25.2-28.4-28.8c-3.5-0.9-7.3-1.4-11.1-1.2
					c-0.6,0-1.3,0-1.9,0.1c-20.8,1.5-36.9,19.2-36.3,40.6c0.6,21.7,18.6,38.8,40.3,38.2c11-0.3,20.8-4.9,27.7-12.2
					C279.3,327.8,283.5,317.8,283.2,307z M337.8,132.4c-0.4-14.9-5.1-28.4-13-39.7c-6.3-9.2-14.6-17-24.4-23.2
					c-17.5-11.3-39.6-17.4-62.6-16.8c-5.4,0.2-10.6,0.6-15.4,1.3c-11.3,1.7-21,4.8-29.2,8.9c0,0,0,0,0,0c-14.1,7-24,16.6-30.9,25.9
					c-5.1,7-6.6,15.4-4.8,23.2c1.9,8.4,7.5,16,16.2,19.9c12.3,5.5,26.8,1.8,34.8-9c4.7-6.3,11.1-11.7,19.6-14.3
					c3.3-1,6.9-1.6,10.8-1.7c15.5-0.4,28.2,11,28.7,27.5c0.6,23.4-17.2,25.8-36.8,38.2c-0.9,0.6-1.9,1.2-2.8,1.8
					c-15.2,10.4-15.6,22.8-15.2,38l0.2,9c0.4,15.5,13.1,27.8,28.5,27.8c0.2,0,0.5,0,0.8,0c11.5-0.3,21.4-7.4,25.6-17.5
					c1-2.5,1.7-5.1,2-7.9c0.5-5.7,1.8-11.2,4.2-15.3c0,0,0,0,0,0c1.8-2.9,4.1-5,7.4-5.8c14.9-6.8,28.2-15,38.1-25.1
					C331.3,165.5,338.3,150.8,337.8,132.4z"/>
				<path class="st9" d="M234,231.3c9.7,6.7,24.2,8.2,33.9,0.2c-4.2,10.1-14.2,17.2-25.6,17.5c-0.3,0-0.5,0-0.8,0
					c-15.4,0-28.1-12.3-28.5-27.8l-0.2-9c-0.4-15.2-0.1-27.6,15.2-38c0.9-0.6,1.9-1.2,2.8-1.8c19.6-12.4,37.5-14.8,36.8-38.2
					c-0.4-16.5-13.2-27.9-28.7-27.5c-3.9,0.1-7.5,0.7-10.8,1.7c-8.5,2.7-14.9,8-19.6,14.3c-8,10.8-22.5,14.6-34.8,9
					c-8.7-3.9-14.3-11.5-16.2-19.9c8.8,3.2,22.1,6.8,33.6-2c31.1-23.7,66.4-32.8,88.7,0.3c22.3,33.1-5.5,61.4-40.7,75.1
					C221.8,192,228.4,227.5,234,231.3z"/>
				<path class="st10" d="M162.8,101.2c0,0-2.7,16.8,14.6,23.3c17.3,6.5,29.1-22.2,55.3-24.9c26.1-2.8,38.1,11.7,41.4,24.9"/>
				<path class="st10" d="M220.9,200c0,0-2.8,17.9,3,31c5.8,13.1,28.4,14.1,35.4-1.1c7-15.2-2-21.5,18.1-32.2
					c20.1-10.7,26.9-17.1,30.4-21.1"/>
				<path class="st10" d="M221.8,60.6c0,0,52.6-7.7,84.7,22.2c32.1,29.9,17.3,71.8,17.3,71.8"/>
				<path class="st10" d="M253.2,168.1c0,0,23.3-9.9,22.4-34.6"/>
				<path class="st5" d="M272.3,335.1c-7,7.3-16.7,11.9-27.7,12.2c-21.7,0.6-39.7-16.5-40.3-38.2c-0.6-21.4,15.5-39,36.3-40.6
					c0.6-0.1,1.2-0.1,1.9-0.1c3.8-0.1,7.6,0.3,11.1,1.2c-13.1,2-35.3,9.1-34.4,33.5c1.3,34.6,40.9,32.8,51,8.5
					c3.8-9.2,8-12.9,11.8-13.2c0.7,2.7,1.1,5.6,1.1,8.5C283.5,317.8,279.3,327.8,272.3,335.1z"/>
				<path class="st10" d="M274.7,308.3c0,17.3-14,31.3-31.3,31.3c-17.3,0-31.3-14-31.3-31.3c0-17.3,8.7-34.2,26-34.2"/>
			</g>
		</g>
		<g>
			<g>
				<path class="st6" d="M195.8,420.5c0,3.1-12.9,5.6-28.9,5.6s-28.9-2.5-28.9-5.6s12.9-5.6,28.9-5.6S195.8,417.4,195.8,420.5z"/>
				<g>
					<path class="st11" d="M178.1,289.1c-0.5-0.1-1.3,1-1.3,1l-1.7-1.9c0,0,0.3-1,0.6-2.7c0.1-1,0.3-3.2,0.4-4.6
						c2.8-3.2,11-13.2,9.5-20.3c-1.7-8.5-8.1-24.9-8.1-24.9c-1.5,0-10.9,5.3-10.9,5.3l8.5,21l-4.6,13.8l-0.1,0l-3.6,8.6
						c-0.7,1.7-0.4,3.7,0.8,5.1c0.8,0.9,1.6,1.7,2,1.9c1.1,0.6,6.3,2.3,7.2,1.7c0.9-0.5,1.9-3,1.9-3S178.6,289.2,178.1,289.1z"/>
					<polygon class="st11" points="144.7,401 146.9,414.9 155.4,411.7 154.8,401 					"/>
					<polygon class="st11" points="172.1,399.4 173.6,409.8 184.7,413.2 182.9,399.4 					"/>
					<path class="st12" d="M185.7,404.5c-7.1,4.2-15.6,1.4-15.6,1.4l-12.1-98.6l-1.4,0.7l0.6,37.9l0.2,10.7l0.8,49.8
						c-7.4,3.1-14.3,0-14.3,0l-8.8-96.4c-3.7-19.4-0.3-35.4-0.3-35.4c5.9,0.3,35.8,0.3,35.8,0.3s5.8,39.6,7.6,51.7
						c0.5,3.1,1,7.8,1.6,13.2c0.6,5.3,1.2,11.3,1.7,17.5C183.6,379.6,185.7,404.5,185.7,404.5z"/>
					<path class="st12" d="M166.6,215.7c0,0,9.6,7.9,12.7,21.3l-8.9,2.3L166.6,215.7z"/>
					<path class="st13" d="M154.9,212c0.3,0.3,7.5,1.8,10.9,3.1c3.4,1.3,6.8,13.6,7.1,20.9c0.3,7.3-2.2,39.4-2.2,39.4
						c-3.2,4.4-35.8-1-35.8-1s-8.7-32-8.2-49.1c0.2-5.4,1.9-8.9,1.9-8.9l14.9-4.9L154.9,212z"/>
					<path class="st11" d="M142.2,214.6c0,0,4.2,3.5,9,3.5c4.7,0,5.5-3.6,5.5-3.6c-0.6-1-1-2.1-1.3-3.2c-0.8-3.1-0.8-6.1-0.8-6.1
						l-10.4-5c0.6,2.6,0.6,5,0.4,7.1C144,211.8,142.2,214.6,142.2,214.6z"/>
					<path class="st14" d="M144.6,207.4c2,1.8,5.6,4.1,10.8,4c-0.8-3.1-0.8-6.1-0.8-6.1l-10.4-5
						C144.8,202.9,144.8,205.3,144.6,207.4z"/>
					<path class="st11" d="M136.9,190.5c1.5-0.6,2.8,0.2,3.7,1c-0.4-2.4-0.6-5.1-0.4-7.9c0.4-8.7,16.7-9,20.5-7.2
						c3.9,1.8,3.8,12.3,3.8,13.9c0,0,0.6,9.7-3.8,14.8c-4.4,5.1-12.6,3.7-15.5-1.2c-0.7-1.1-1.3-2.4-1.9-3.7c-0.7,0.1-3,0.2-5.3-1.8
						C135.2,196.1,134.1,191.6,136.9,190.5z"/>
					<path class="st15" d="M138.6,176.5c0,0,0.3-3.6,3.6-4.9c3.3-1.2,4.8,0.2,6.2-0.7c1.4-0.9,3.5-3.7,7.6-3c4.1,0.7,5.1,4,6.8,3
						c1.6-1,4.8-0.3,6.3,3c1.6,3.3-1.6,4.6-0.9,6c0.8,1.4,1.9,2.3,0.9,4.7c-1,2.4-2.5,1-2.5,2.7c0,1.6-2,3.1-2,3.1s-0.3-6.7-1-8.1
						c0,0-2.3,2.6-6.3,1.9c-2.6-0.4-3,1.4-4.4,2.7c-1.4,1.3-6.5,1.1-6.5,1.1s0,6.1-2,7.7c-2,1.6-1.2-2.8-3.7-4.1
						c-2.5-1.3-4.1-0.3-4.4,2.6c-0.3,3,3.5,6.5,7,6.2c0,0,1.1,1.6,1.5,2.9c0.3,1.3-0.1,4.1-0.1,4.1s-12-7.8-13.7-14
						c-1.7-6.2,0.7-9.5,0.7-9.5s-0.3-2.3,1.2-4.7C134.3,176.8,138.6,176.5,138.6,176.5z"/>
					<path class="st11" d="M162.9,210.7c0,0,0.3-1,0.3-1.5c0-0.5-0.8-2-0.8-2s0.2-0.6,0.3-1.4c0-0.8,0.6-3.4-0.4-3.6
						c-1-0.3-2,4.7-3.3,5.7c-1.3,1-3.1,2.1-3,1.8c0.1-0.3,0.1-2,0-2.6c-0.1-0.5-0.9-2.1-1.4-1.3c-0.5,0.8-1.6,5.2-1.3,6.4
						c0.3,1.2,1.1,4.3,1.1,4.3l-0.7,2.8l-7.4,31.2l-6.4-11l-14.8,5c0,0,11.3,20,17.7,22.4c2.2,0.8,3.9,1.1,5.4,1.1c0,0,0,0,0,0
						c2.5,0.3,7.3-0.7,10.2-7.2c3-6.4,1.8-41.1,1.8-41.1l0,0l0.3-1.1c0,0,1.7-3,2-3.3c0.3-0.3,0.1-1.8,0.1-1.8s0.5-0.5,0.6-1.2
						C163.3,211.8,162.9,210.7,162.9,210.7z"/>
					<path class="st16" d="M146.2,411.7c0,0-0.1,6.9,0,8.1c0.1,1.2,1.1,3.4,4,5c2.9,1.6,6.7,1.4,8.7,1.2c2-0.2,3.6-0.9,4.2-1.9
						c0.6-1,0-2.5-1.1-4.4c-1.1-1.9-3.5-2.4-4.6-4.5c-1.1-2.1-1.6-3.9-2.1-4.3c-0.6-0.5-3.3-0.3-4.3,0.2c-1,0.5-2.2,2.2-2.7,2.2
						C147.7,413.2,147.4,411.8,146.2,411.7z"/>
					<path class="st16" d="M173,409.2c0.1,2.3,0.4,6.8,1,8.7c0,0,0,1.2,3.4,1.4c3.4,0.2,7.1,0,9.3,0.4c2.2,0.4,8,0.2,9-0.5
						c0.9-0.6,1.5-2.7,0.1-3.8c-1.4-1-10.1-5.4-11.8-6.8c0,0-2,0.1-3.6,1.5c-1.2,1.1-4.3-0.8-6.2-1.8
						C173.7,408.1,173,408.5,173,409.2z"/>
					<path class="st17" d="M134.2,277.6c0,0,10.2,3.2,21.5,3.3c11.3,0.1,15.4-2.1,15.4-2.1"/>
					<path class="st17" d="M156.5,307.9c0,0,1.6-8.3,7.2-10.5"/>
					<path class="st17" d="M162.4,280.7c0,0,1.2,8.6-0.5,12.5c-1.8,3.9-3,3.1-3,3.1v-11.8"/>
					<path class="st17" d="M133.5,285.4c0,0,6.8-0.4,8.1-6"/>
					<path class="st17" d="M143.4,402.1c0,0,6.4,2.8,14.4,0.2"/>
					<path class="st17" d="M169.6,402.7c0,0,9,1.7,16-1.7"/>
					<path class="st18" d="M157.3,356.5c-1.3,1.9-3.3,3.1-5.5,3.1c-3.9,0-7.1-3.7-7.1-8.3c0-4.6,3.2-8.3,7.1-8.3
						c2.1,0,4,1.1,5.3,2.9L157.3,356.5z"/>
					<path class="st18" d="M181.5,357.2c-0.5,0.2-1.1,0.3-1.7,0.3c-3.9,0-7.1-4-7.1-8.9c0-4.9,3.1-8.9,7-8.9
						C180.3,344.9,180.9,351,181.5,357.2z"/>
					<path class="st17" d="M135.8,285c0,0,0.1,10.2,1.8,24.6l4,47.9l3.3,45.1"/>
					<path class="st17" d="M158.4,302.7c0,0,8.1,47.2,8.3,51.3c0.2,4.1,5.4,49.3,5.4,49.3"/>
					<path class="st19" d="M146.3,250.6c0,0-1.1,3.9-2.1,8.9"/>
					<path class="st19" d="M175.2,262c0,0,4.1-2,7.3-1.7"/>
					<path class="st12" d="M128.7,216.5c0,0-7.4,2.6-7.9,12.6s2.6,18.2,2.6,18.2l18.7-6.9C142.2,240.5,135.5,219.7,128.7,216.5z"/>
					<path class="st19" d="M162.4,207.2c0,0-0.8,1.5-1.4,2"/>
					<path class="st19" d="M162.9,210.7c0,0-0.7,1.3-1.2,1.6"/>
					<line class="st19" x1="162.7" y1="213.6" x2="161.7" y2="214.7"/>
					<path class="st19" d="M174.2,416.6c0,0,2.7,0.3,7.5,0.6c4.8,0.3,11.3,0.9,14.1,0"/>
					<path class="st19" d="M146.7,418.7c0,0,1.8,3.1,6.4,3.7c4.5,0.7,9-0.3,9-0.3"/>
					<path class="st19" d="M162.4,202.3c0,0,0-0.3-0.6,0c-0.6,0.3-1.8,4.4-2.5,5.1c-0.7,0.7-3.4,2.5-3.4,2.5s0.6-1.6,0-3.1
						c-0.6-1.4-1.3-1.1-1.3-1.1s-1.4,2.9-1.3,5.2s1.1,5.8,1.1,5.8"/>
					<path class="st19" d="M138.5,193.1c0,0,2.9,2.6,3.2,4.9"/>
					<path class="st19" d="M139.3,197.5c0,0,0.4-1.6,1.3-1.9"/>
					<line class="st20" x1="124.2" y1="244.4" x2="139.9" y2="238.7"/>
					<line class="st21" x1="139.3" y1="176.8" x2="142.2" y2="176.8"/>
					<line class="st21" x1="132.9" y1="184.2" x2="134.2" y2="184.6"/>
					<path class="st21" d="M164.5,180.6c0,0-0.5,2.5-3.5,3.3c-3,0.9-4.4-0.5-5.5,0.2c-1.1,0.7-3.3,5.1-9.2,3.7c0,0-0.3,7.7-2.5,7.9
						c-2.2,0.2-1.1-3.6-3.6-4.6"/>
					<path class="st21" d="M159.8,172.6c0,0,1.4,0.3,1.8-0.6"/>
					<path class="st21" d="M149.3,172c0,0,0.5,0.4,1.7,0.3"/>
					<line class="st21" x1="144.8" y1="185" x2="145.6" y2="185.5"/>
					<path class="st21" d="M151.7,179.8c0,0,1.1-1,3.2-0.5"/>
				</g>
			</g>
			<g>
				<path class="st1" d="M124.5,178.8c-7.2-1.8-12.3-5.1-15.7-8.3c8.9-6.8,14.6-17.4,14.6-29.4c0-20.4-16.6-37-37-37
					c-20.4,0-37,16.6-37,37c0,20.4,16.6,37,37,37c2.9,0,5.6-0.3,8.3-0.9C110.9,183.8,124.5,178.8,124.5,178.8z"/>
				<g>
					<path class="st4" d="M75.3,130.7c-3-1.2-4.2-4.9-2.4-7.6c2.1-3.2,6-6.6,13.2-7.1c9.2-0.7,17.9,4.8,18.5,13.4
						c0.4,6-3.8,10-9.5,13c-1.4,0.4-1.8,2.1-1.9,3.9c-0.1,2.6-2.2,4.6-4.7,4.8l0,0c-2.8,0.2-5.3-1.9-5.5-4.7l-0.1-1.6
						c-0.2-2.7-0.2-4.9,2.4-6.9c3.6-2.7,7.1-3.1,6.8-7.5c-0.2-3-2.6-4.9-5.3-4.7c-2.5,0.2-4.2,1.5-5.3,3.1
						C80.1,130.8,77.6,131.6,75.3,130.7L75.3,130.7z M96.3,161.1c0.3,3.9-2.6,7.2-6.6,7.5c-3.9,0.3-7.2-2.6-7.5-6.5
						c-0.3-3.9,2.6-7.3,6.5-7.6C92.7,154.3,96,157.2,96.3,161.1z"/>
				</g>
			</g>
		</g>
		<g>
			<g>
				<path class="st6" d="M407.6,413.8c0.1,4.2-18.8,8-42.2,8.6c-23.4,0.6-42.5-2.3-42.6-6.4c-0.1-4.2,18.8-8,42.2-8.6
					C388.4,406.8,407.5,409.7,407.6,413.8z"/>
				<g>
					<path class="st11" d="M358.9,360.6c0,0,1.1,3,0.1,15.7c-1,12.7-1.9,26.8-1.9,26.8l-8.1,1.2l-4.6-42.7L358.9,360.6z"/>
					<path class="st11" d="M387,361c0,0,1.5,2.9,1.9,15.5c0.5,12.7,1.2,26.8,1.2,26.8L382,403l-9.1-39.4L387,361z"/>
					<path class="st5" d="M341.3,291.2l1.9,76.6c3.7,3.8,18-0.1,18-0.1s1.9-68.5,2.1-74.8C363.2,292.9,360.2,282.9,341.3,291.2z"/>
					<line class="st22" x1="359.2" y1="304.1" x2="357.5" y2="364.5"/>
					<path class="st4" d="M389.1,366.5l-7.4-71.4c0,0,0.6-15.3-5.6-27.3l-34.1,0.6l-0.6,22.8l15.5,6.4c3.4,15.3,15.7,69.8,15.7,69.8
						C379.4,372.1,389.1,366.5,389.1,366.5z"/>
					<path class="st13" d="M347.2,210.7l-26,26.9l6.2,9.6c0,0,14.8-6.7,18.3-13C349.2,227.8,347.2,210.7,347.2,210.7z"/>
					<path class="st12" d="M358.6,207.3c-0.3,0.2-7.2,1.5-10.5,2.7c-3.3,1.2-6.9,12.8-7.4,19.8c-0.5,7,1.2,38.5,1.2,38.5
						c3,4.3,34.1-0.6,34.1-0.6s9.2-30.4,9.2-46.8c0-5.2-1.6-8.5-1.6-8.5l-14.1-5.1L358.6,207.3z"/>
					<path class="st15" d="M348.6,183.5c0,0,0.4,6-1.6,12c-2,6-3,7.1-3,7.3c0.1,0.2,1.1,1,2.9,0.7c1.7-0.3,1.9,0.5,3.8,1.7
						c1.9,1.2,2.8-0.4,4.2,0.7c1.4,1.1,4.5,1.6,5.1,1.4s-1.3-9.7-1.3-9.7l-4.7-15.4L348.6,183.5z"/>
					<path class="st11" d="M369.4,207.1c0.7,2.2-0.5,4.5-2.6,5.3c-1.4,0.5-3,1-4.8,0.9c-0.1,0-0.1,0-0.2,0c-2.9-0.2-4.9-3.1-3.9-5.8
						c0.1-0.3,0.2-0.5,0.3-0.8c0.9-2.9,0.9-5.8,0.9-5.8l10.1-4.5c-0.7,2.5-0.7,4.8-0.5,6.8C368.8,204.7,369.1,206,369.4,207.1z"/>
					<path class="st14" d="M368.6,203.2c-2,1.7-5.4,3.8-10.5,3.5c0.9-2.9,0.9-5.8,0.9-5.8l10.1-4.5
						C368.5,198.9,368.4,201.2,368.6,203.2z"/>
					<path class="st11" d="M376.5,187.2c-1.4-0.6-2.7,0.1-3.6,0.9c0.4-2.3,0.7-4.8,0.6-7.6c-0.1-8.4-15.8-9.1-19.5-7.5
						c-3.7,1.6-4,11.6-4,13.3c0,0-0.8,9.3,3.2,14.3c4,5,12,3.9,14.9-0.7c0.7-1.1,1.3-2.2,1.9-3.5c0.7,0.1,2.9,0.3,5.1-1.6
						C377.9,192.7,379.1,188.4,376.5,187.2z"/>
					<path class="st15" d="M354.4,171.9c0,0-2.2-0.4-4.1,3c-1.9,3.5-2.7,7.6-4.4,8.4c0,0,3,1.4,5,1.4c0,0,1.2-4,2.7-5.3
						c0,0-1,4.7-1,6.1c0,0,5,1.2,7.2,1l1.3-4.1l0.5,4.2c0,0,2.2,0.5,4.7,0.4l1.3-3.8c0,0-0.8,5.5,1.2,6.7c0,0-0.3,2.7,0.9,4.2
						c0,0,2-6,5.2-5.5c3.2,0.5,1.2,5.5-0.7,6.7s-3.9,1.2-3.9,1.2s-1.2,2.4-1.5,2.8c0,0-0.6,4.5,0.3,6.6c0.8,2.1,3.5,1.4,4.2,0.9
						c0.7-0.5,1.8,0.3,3.2,0.1c1.4-0.2,1.5-1.2,2.3-1.2c0.8,0,1.9,0.1,2.4-0.8c0,0,0.3-0.7,1.8-0.6c1.5,0.1,3-0.7,3.6-2.1
						c0,0-4.6-3.3-3.9-11c0.7-7.8-0.5-11.2-2.6-12.6c0,0-0.6-5.3-8.6-8.7C363.2,166.6,357.1,169.1,354.4,171.9z"/>
					<path class="st13" d="M383.6,212.4c0,0-3.5,4.6-4.6,10.5c-1.2,5.9,1.9,9.9,1.9,9.9l18.3,18.7l6.6-7.7c0,0-6.4-11.1-13.2-21.2
						C385.8,212.7,383.6,212.4,383.6,212.4z"/>
					<path class="st11" d="M327.2,241.4c-1.1-5.7-11.7-21.7-14.4-25.7l0,0c-0.1-1.4-1.1-3.2-1.7-4.1c-0.5-2.5-1.3-7.1-1.9-5.5
						c-0.5,1.4-0.4,3.4-0.3,4.5l-5.3-1.4c-0.9-0.3-3.4-1.2-4.5-0.7c-0.9,0.4,1.7,1.4,3.5,2l-0.1,0.3c-1.1-0.4-3.9-1.4-4.9-0.9
						c-1.1,0.4,2.8,1.8,4.4,2.3l-0.2,0.6c-0.2-0.1-3.4-1.4-4.8-0.9c-1,0.4,2.5,1.7,4.2,2.2l-0.2,0.4c-1.1-0.4-3.1-1-4.1-0.6
						c-1.4,0.5,5.1,2.5,5.1,2.5l5.3,2.3c1.1,3.9,6.4,22.5,9.6,26.3c3.6,4.2,7,4.3,8.1,4C326.2,248.9,328.5,248,327.2,241.4z"/>
					<path class="st11" d="M427.7,218.3c-1-0.5-3,0.1-4.1,0.4l-0.1-0.4c1.7-0.5,5.3-1.5,4.3-2c-1.3-0.6-4.6,0.5-4.8,0.6l-0.2-0.6
						c1.6-0.4,5.6-1.6,4.5-2.1c-1.1-0.5-3.9,0.3-5,0.7l-0.1-0.3c1.8-0.5,4.5-1.4,3.6-1.8c-1.1-0.5-3.6,0.2-4.5,0.5l-5.4,1.1
						c0.2-1.1,0.4-3.1,0-4.5c-0.5-1.6-1.5,2.9-2.2,5.3c-0.6,0.8-1.8,2.7-1.9,4l0.1,0l-12.7,32.4c3.8,3.9,9,4.2,11.1,0.3
						c1.8-3.4,6.9-24.3,8.2-29.8l4.1-1.5C422.5,220.5,429,218.9,427.7,218.3z"/>
					<path class="st16" d="M341.2,407.2c-3.9,2.2-7.1,1.9-7.8,4.5c-0.4,1.5,5.1,2.2,8.5,2.3c3.4,0.1,7.7-1,10.7-1.4s5.2-0.7,5.6-1.2
						c0.4-0.5,0-6.7-0.2-7.7c-0.2-1-0.8-1.5-0.8-1.5s-1.5,0.7-4.2,1.1c-2.8,0.4-2.4-1.3-4.1-0.9C347.8,402.7,345.1,405,341.2,407.2z
						"/>
					<path class="st16" d="M381,401.8c0,0-1.2,4-2.1,7.9c-0.9,3.9-3,6.4-2.8,8.1c0.2,1.7,1.3,2.7,3.4,2.8c2,0.1,5.1-0.2,7.4-2.4
						c2.2-2.2,3.4-6.4,3.8-7.5c0.5-1.2,1.7-5.1,1.8-5.6c0-0.5-2.4-6.8-2.4-6.8s-0.9,3.2-2,4C386.8,403.1,384.4,399.7,381,401.8z"/>
					<path class="st17" d="M356.5,207.9c0,0-1.6,1.4-0.3,4.1c1.3,2.7,7.7,4.5,12,2c4.3-2.4,5-5.4,5-5.4"/>
					<path class="st17" d="M343.7,238.3c0,0,7.9-0.2,13.1,0.4c5.2,0.6,12.1,2.8,15.4,2.9"/>
					<path class="st23" d="M341.8,271.6c0,0,2,1.6,11.3,2c9.3,0.3,24.4-2.7,24.4-2.7"/>
					<path class="st23" d="M347.1,274.6c0,0,0.2,8.2,2,13.2c1.8,4.9,4.5,6.2,4.5,6.2l-2.4-17.3"/>
					<path class="st23" d="M368.9,272.4c0,0,2.8,4.5,6.9,5.2"/>
					<path class="st23" d="M375.5,271.3c0,0,1.2,1,2.5,18.2c1.4,17.3,8.5,74.9,8.5,74.9"/>
					<path class="st23" d="M372,365.2c0,0,10.4,1.5,16.8-1.6"/>
					<path class="st22" d="M343.1,365c0,0,2.7,1.3,8.2,0.8c5.4-0.5,10-1.6,10-1.6"/>
					<path class="st24" d="M383.2,216.7c0,0-3.2,8.8-1.4,14.6"/>
					<path class="st24" d="M400.9,241.9c0,0-1.8,5-1.7,8.4"/>
					<path class="st24" d="M327.3,237.1c0,0,2.5,2.4,2.4,6.9"/>
					<path class="st24" d="M338.9,223.8c0,0-0.9,7.8-0.3,11.7"/>
					<line class="st19" x1="418.4" y1="222.1" x2="416" y2="222.7"/>
					<line class="st19" x1="307.3" y1="218.8" x2="309.3" y2="219.6"/>
					<path class="st19" d="M309,210.6c0,0-0.3,2.8,0.4,4.1"/>
					<line class="st19" x1="303.1" y1="210.1" x2="300.8" y2="215"/>
					<path class="st19" d="M415.8,214.5c0,0,0.3,1.5-0.4,3"/>
					<line class="st19" x1="421.7" y1="213.9" x2="423.6" y2="218.9"/>
					<path class="st19" d="M334.5,411.3c0,0,1.5,1.3,9.8,0.7c8.3-0.7,13.1-1.9,13.1-1.9"/>
					<path class="st19" d="M377,418.2c0,0,5.3,0.7,8.7-2.1c3.4-2.8,5.7-11.7,5.7-11.7"/>
					<line class="st21" x1="379.9" y1="178.6" x2="377" y2="178.9"/>
					<path class="st21" d="M351,175.9c0,0-1.2,1.9-1.6,3.2"/>
					<line class="st21" x1="354.4" y1="171.9" x2="356.1" y2="171.9"/>
					<line class="st21" x1="357.8" y1="178" x2="357.2" y2="180"/>
					<line class="st21" x1="364.2" y1="179.2" x2="364.8" y2="180.7"/>
					<path class="st21" d="M379.4,181.1c0,0,2.5,3.1,2,8.4"/>
					<path class="st21" d="M367.3,170.8c0,0,7.3,0.9,10.1,5.8"/>
					<path class="st21" d="M370.5,198.2c0,0,0.7,5.1,1.8,7.2"/>
					<line class="st21" x1="373.8" y1="198.7" x2="374.6" y2="201.2"/>
					<path class="st21" d="M378.1,197.3c0,0,1.2,3,2.2,4.8"/>
					<path class="st21" d="M348.8,202.3c0,0,0.9-2.7,1.1-4.7"/>
				</g>
			</g>
			<g>
				<path class="st1" d="M421.7,125.4c-16.2,0-29.4,13.2-29.4,29.4c0,10.6,5.6,19.9,14,25.1c-2.7,2.9-7.1,7.1-14,11.8
					c0,0,18.2-0.4,29-7.5c0.1,0,0.3,0,0.4,0c16.2,0,29.4-13.2,29.4-29.4S437.9,125.4,421.7,125.4z"/>
				<g>
					<path class="st4" d="M412.6,142.4c-2.3-1.9-2.4-5.4,0-7.4c2.7-2.2,7.1-4.1,13.5-2.7c8.3,1.9,14.5,9,12.7,16.9
						c-1.2,5.4-6.1,7.8-11.9,8.9c-1.3,0-2.2,1.4-2.7,2.9c-0.8,2.2-3.2,3.5-5.5,2.9h0c-2.5-0.6-4.1-3.1-3.5-5.6l0.3-1.5
						c0.6-2.4,1.1-4.4,4-5.4c3.9-1.4,7.1-0.8,8-4.8c0.6-2.7-1-5-3.4-5.6c-2.3-0.5-4.1,0.2-5.5,1.3
						C416.8,143.7,414.4,143.7,412.6,142.4L412.6,142.4z M422.9,174.8c-0.8,3.5-4.3,5.7-7.8,4.9c-3.5-0.8-5.7-4.3-4.9-7.8
						c0.8-3.5,4.3-5.7,7.8-4.9C421.5,167.8,423.7,171.3,422.9,174.8z"/>
				</g>
			</g>
		</g>
	</g>
</g>
</svg>
